<mxfile host="app.diagrams.net" modified="2024-04-12T12:10:27.310Z" agent="Mozilla/5.0 (X11; Linux x86_64) AppleWebKit/537.36 (KHTML, like Gecko) Chrome/123.0.0.0 Safari/537.36" etag="HY1G490YPu2khgeset1S" version="24.2.3" type="github">
  <diagram id="C5RBs43oDa-KdzZeNtuy" name="Page-1">
    <mxGraphModel dx="1364" dy="793" grid="1" gridSize="10" guides="1" tooltips="1" connect="1" arrows="1" fold="1" page="1" pageScale="1" pageWidth="827" pageHeight="1169" math="0" shadow="0">
      <root>
        <mxCell id="WIyWlLk6GJQsqaUBKTNV-0" />
        <mxCell id="WIyWlLk6GJQsqaUBKTNV-1" parent="WIyWlLk6GJQsqaUBKTNV-0" />
        <mxCell id="yBXioIpO8xZLDs3lNVPr-8" style="edgeStyle=orthogonalEdgeStyle;rounded=0;orthogonalLoop=1;jettySize=auto;html=1;exitX=0.5;exitY=0;exitDx=0;exitDy=0;entryX=0.5;entryY=1;entryDx=0;entryDy=0;strokeWidth=4;fontSize=16;fontStyle=1" edge="1" parent="WIyWlLk6GJQsqaUBKTNV-1" source="WIyWlLk6GJQsqaUBKTNV-6" target="yBXioIpO8xZLDs3lNVPr-18">
          <mxGeometry relative="1" as="geometry">
            <mxPoint x="290" y="110" as="targetPoint" />
          </mxGeometry>
        </mxCell>
        <mxCell id="yBXioIpO8xZLDs3lNVPr-14" value="Verdadeiro" style="edgeLabel;html=1;align=center;verticalAlign=middle;resizable=0;points=[];fontSize=16;fontStyle=1" vertex="1" connectable="0" parent="yBXioIpO8xZLDs3lNVPr-8">
          <mxGeometry y="-2" relative="1" as="geometry">
            <mxPoint as="offset" />
          </mxGeometry>
        </mxCell>
        <mxCell id="yBXioIpO8xZLDs3lNVPr-10" style="edgeStyle=orthogonalEdgeStyle;rounded=0;orthogonalLoop=1;jettySize=auto;html=1;exitX=1;exitY=0.5;exitDx=0;exitDy=0;strokeWidth=4;fontSize=16;fontStyle=1" edge="1" parent="WIyWlLk6GJQsqaUBKTNV-1" source="WIyWlLk6GJQsqaUBKTNV-6" target="yBXioIpO8xZLDs3lNVPr-16">
          <mxGeometry relative="1" as="geometry">
            <mxPoint x="472" y="300" as="targetPoint" />
          </mxGeometry>
        </mxCell>
        <mxCell id="yBXioIpO8xZLDs3lNVPr-15" value="Falso" style="edgeLabel;html=1;align=center;verticalAlign=middle;resizable=0;points=[];fontSize=16;fontStyle=1" vertex="1" connectable="0" parent="yBXioIpO8xZLDs3lNVPr-10">
          <mxGeometry x="-0.2235" y="3" relative="1" as="geometry">
            <mxPoint as="offset" />
          </mxGeometry>
        </mxCell>
        <mxCell id="WIyWlLk6GJQsqaUBKTNV-6" value="r == 0 ?" style="rhombus;whiteSpace=wrap;html=1;shadow=0;fontFamily=Helvetica;fontSize=16;align=center;strokeWidth=4;spacing=6;spacingTop=-4;fontStyle=1;fillColor=#f8cecc;strokeColor=#b85450;" parent="WIyWlLk6GJQsqaUBKTNV-1" vertex="1">
          <mxGeometry x="225" y="250" width="130" height="100" as="geometry" />
        </mxCell>
        <mxCell id="yBXioIpO8xZLDs3lNVPr-2" style="edgeStyle=orthogonalEdgeStyle;rounded=0;orthogonalLoop=1;jettySize=auto;html=1;strokeWidth=4;fontSize=16;fontStyle=1" edge="1" parent="WIyWlLk6GJQsqaUBKTNV-1" source="yBXioIpO8xZLDs3lNVPr-0" target="yBXioIpO8xZLDs3lNVPr-1">
          <mxGeometry relative="1" as="geometry" />
        </mxCell>
        <mxCell id="yBXioIpO8xZLDs3lNVPr-0" value="Início" style="ellipse;whiteSpace=wrap;html=1;strokeWidth=4;fontSize=16;fontStyle=1;fillColor=#ffe6cc;strokeColor=#d79b00;" vertex="1" parent="WIyWlLk6GJQsqaUBKTNV-1">
          <mxGeometry x="30" y="30" width="120" height="80" as="geometry" />
        </mxCell>
        <mxCell id="yBXioIpO8xZLDs3lNVPr-5" style="edgeStyle=orthogonalEdgeStyle;rounded=0;orthogonalLoop=1;jettySize=auto;html=1;exitX=0.5;exitY=1;exitDx=0;exitDy=0;entryX=0.5;entryY=0;entryDx=0;entryDy=0;strokeWidth=4;fontSize=16;fontStyle=1" edge="1" parent="WIyWlLk6GJQsqaUBKTNV-1" source="yBXioIpO8xZLDs3lNVPr-1" target="yBXioIpO8xZLDs3lNVPr-4">
          <mxGeometry relative="1" as="geometry" />
        </mxCell>
        <mxCell id="yBXioIpO8xZLDs3lNVPr-1" value="Leia(x)" style="shape=parallelogram;perimeter=parallelogramPerimeter;whiteSpace=wrap;html=1;fixedSize=1;strokeWidth=4;fontSize=16;fontStyle=1;fillColor=#f5f5f5;fontColor=#333333;strokeColor=#666666;" vertex="1" parent="WIyWlLk6GJQsqaUBKTNV-1">
          <mxGeometry x="30" y="160" width="120" height="60" as="geometry" />
        </mxCell>
        <mxCell id="yBXioIpO8xZLDs3lNVPr-6" style="edgeStyle=orthogonalEdgeStyle;rounded=0;orthogonalLoop=1;jettySize=auto;html=1;exitX=1;exitY=0.5;exitDx=0;exitDy=0;strokeWidth=4;fontSize=16;fontStyle=1" edge="1" parent="WIyWlLk6GJQsqaUBKTNV-1" source="yBXioIpO8xZLDs3lNVPr-4" target="WIyWlLk6GJQsqaUBKTNV-6">
          <mxGeometry relative="1" as="geometry" />
        </mxCell>
        <mxCell id="yBXioIpO8xZLDs3lNVPr-4" value="r = resto da divisão de x por 2" style="rounded=0;whiteSpace=wrap;html=1;strokeWidth=4;fontSize=16;fontStyle=1;fillColor=#d5e8d4;strokeColor=#82b366;" vertex="1" parent="WIyWlLk6GJQsqaUBKTNV-1">
          <mxGeometry x="30" y="270" width="120" height="60" as="geometry" />
        </mxCell>
        <mxCell id="yBXioIpO8xZLDs3lNVPr-11" value="Fim" style="ellipse;whiteSpace=wrap;html=1;strokeWidth=4;fontSize=16;fontStyle=1;fillColor=#ffe6cc;strokeColor=#d79b00;" vertex="1" parent="WIyWlLk6GJQsqaUBKTNV-1">
          <mxGeometry x="481.5" y="30" width="120" height="80" as="geometry" />
        </mxCell>
        <mxCell id="yBXioIpO8xZLDs3lNVPr-17" style="edgeStyle=orthogonalEdgeStyle;rounded=0;orthogonalLoop=1;jettySize=auto;html=1;exitX=0.5;exitY=0;exitDx=0;exitDy=0;entryX=0.5;entryY=1;entryDx=0;entryDy=0;strokeWidth=4;" edge="1" parent="WIyWlLk6GJQsqaUBKTNV-1" source="yBXioIpO8xZLDs3lNVPr-16" target="yBXioIpO8xZLDs3lNVPr-11">
          <mxGeometry relative="1" as="geometry" />
        </mxCell>
        <mxCell id="yBXioIpO8xZLDs3lNVPr-16" value="Imprime(&quot;Impar&quot;)" style="shape=parallelogram;perimeter=parallelogramPerimeter;whiteSpace=wrap;html=1;fixedSize=1;strokeWidth=4;fontSize=16;fontStyle=1;fillColor=#f5f5f5;fontColor=#333333;strokeColor=#666666;" vertex="1" parent="WIyWlLk6GJQsqaUBKTNV-1">
          <mxGeometry x="450" y="270" width="183" height="60" as="geometry" />
        </mxCell>
        <mxCell id="yBXioIpO8xZLDs3lNVPr-19" style="edgeStyle=orthogonalEdgeStyle;rounded=0;orthogonalLoop=1;jettySize=auto;html=1;exitX=1;exitY=0.5;exitDx=0;exitDy=0;entryX=0;entryY=0.5;entryDx=0;entryDy=0;strokeWidth=4;" edge="1" parent="WIyWlLk6GJQsqaUBKTNV-1" source="yBXioIpO8xZLDs3lNVPr-18" target="yBXioIpO8xZLDs3lNVPr-11">
          <mxGeometry relative="1" as="geometry" />
        </mxCell>
        <mxCell id="yBXioIpO8xZLDs3lNVPr-18" value="Imprime(&quot;Impar&quot;)" style="shape=parallelogram;perimeter=parallelogramPerimeter;whiteSpace=wrap;html=1;fixedSize=1;strokeWidth=4;fontSize=16;fontStyle=1;fillColor=#f5f5f5;fontColor=#333333;strokeColor=#666666;" vertex="1" parent="WIyWlLk6GJQsqaUBKTNV-1">
          <mxGeometry x="198.5" y="40" width="183" height="60" as="geometry" />
        </mxCell>
      </root>
    </mxGraphModel>
  </diagram>
</mxfile>
